<?xml version="1.0" standalone="no"?><!DOCTYPE svg PUBLIC "-//W3C//DTD SVG 1.1//EN" "http://www.w3.org/Graphics/SVG/1.1/DTD/svg11.dtd"><svg t="1645518068456" class="icon" viewBox="0 0 1024 1024" version="1.1" xmlns="http://www.w3.org/2000/svg" p-id="51192" width="140" height="140" xmlns:xlink="http://www.w3.org/1999/xlink"><defs><style type="text/css"></style></defs><path d="M770.1 591.5c-28.2 5-39.4-0.1-67.7-10.7-20.8-7.8-45-40.4-63.1-76-16.6-32.8-18.8-59.3-12.3-79.4 10.8-33.7 54.3-74.3 48.1-109.3-8.8-49.4-52.6-83.8-100.2-60.5-33.3 16.3-84.4 85.7-99.9 79.3-2.1-0.8-5.1-2.9-5.5-7.5-0.8-9.5 11.5-21.1 14.5-35.4 15.6-75.1-29-165.3-106-182.9-70.1-16-148.2 24.5-168.8 96.8-19.4 68.2 15.3 158.4 85.2 181.7 12.1 4 20.5 1.1 33.8 5.1 5.1 1.6 9.2 7.7 5.8 13.9-8.6 15.8-90.2 11.1-123.5 36.6-34.4 26.4-47.4 81.3-13.2 117.7 24.2 25.8 80.1 20.7 114 29.4 21.7 5.6 47.2 23.6 59.5 52.7 18.9 44.8 28.4 66.3 25.3 93.1-3.6 30.4-12.9 45-33.5 65.2-22.8 22.3-21.5 75.2 4.8 99.4 16.7 15.4 38.1 20 60.2 16.3 69.8-11.9 114-63.5 129.9-131 9.7-40.9 12.5-51.7 24.7-58.6 13.1-7.4 25.1 2.4 75.4 25 62.3 28 197.7-11.5 188.6-98.3-3.6-35.7-45-68-76.1-62.6z" fill="#F6B545" p-id="51193"></path><path d="M347 105.7c10.4 0 20.8 1.1 31.1 3.5 77 17.6 121.5 107.8 105.9 183.1-3 14.3-15.3 25.9-14.5 35.4 0.4 4.6 3.4 6.7 5.5 7.5 0.7 0.3 1.4 0.4 2.2 0.4 17.8 0 65.8-64.1 97.7-79.7 10.5-5.1 20.8-7.5 30.6-7.5 34.7 0 62.8 29.4 69.7 67.9 6.2 35-37.3 75.6-48.1 109.3-6.5 20.1-4.4 46.5 12.3 79.4 18.1 35.6 42.2 68.2 63.1 76 20.9 7.8 32.4 12.6 48.4 12.6 5.7 0 11.9-0.6 19.4-1.9 2.3-0.4 4.7-0.6 7.2-0.6 30 0 65.6 30.1 69.1 63.2 7.1 68.2-74.9 107.2-140.6 107.2-17.9 0-34.6-2.9-48-8.9-39.2-17.6-55.1-27.4-66.4-27.4-3.2 0-6.1 0.8-9 2.4-12.3 6.9-15.1 17.7-24.7 58.6-15.9 67.4-60.1 119.1-129.9 131-4.8 0.8-9.6 1.2-14.3 1.2-16.9 0-32.9-5.5-46-17.5-26.3-24.2-27.6-77.1-4.8-99.4 20.6-20.2 30-34.8 33.5-65.2 3.1-26.8-6.4-48.2-25.3-93.1-12.2-29.1-37.8-47.1-59.5-52.7-33.8-8.7-89.8-3.6-114-29.4-34.1-36.4-21.2-91.3 13.2-117.7 33.3-25.5 114.8-20.8 123.5-36.6 3.4-6.2-0.7-12.4-5.8-13.9-13.3-4.1-21.7-1.1-33.8-5.1-69.9-23.3-104.5-113.6-85.2-181.7 17.3-61.9 76.8-100.4 137.5-100.4m0-32.7c-78.8 0-148.3 51-169.1 124-11.6 40.8-7.7 88.1 10.6 129.8 12.6 28.5 30.6 52 52.7 68.9-18.6 4.4-36.4 10.9-50.5 21.7-25.9 19.9-43 51.3-45.6 84-2.5 30.6 7.6 59.8 28.5 82 24.8 26.4 63 30.4 96.8 33.9 12.5 1.3 24.3 2.6 32.9 4.8 13 3.4 29.7 15.1 37.5 33.7l1.9 4.6c17.1 40.6 22.9 55.5 21 72-2.6 21.8-7.7 29.7-23.9 45.7-16.9 16.5-26.3 42.3-25.8 70.7 0.5 30.4 11.9 58.1 31.4 76.1C364 942 387.5 951 413.5 951c6.5 0 13.1-0.6 19.8-1.7 79.1-13.4 136-70.2 156.2-155.7 2.8-11.9 5.9-25 8.4-33 4.8 2.1 11 5 17 7.9 7.9 3.8 17.8 8.4 29.6 13.8 17.1 7.7 38.4 11.8 61.4 11.8 56 0 112.7-22.7 144.4-57.9 22-24.5 32-54 28.7-85.4-5-48.4-53.4-92.5-101.5-92.5-4.3 0-8.6 0.4-12.8 1.1-5.5 1-10 1.4-13.7 1.4-8.4 0-14.9-2.3-32.5-8.9l-4.4-1.6c-6-2.2-25-19.9-45.4-60.2-11.2-22-14.7-40.9-10.3-54.6 2.8-8.7 10.7-21.1 18.4-33 17.3-27 36.9-57.7 30.8-92-9.9-55.9-51.8-94.9-101.8-94.9-15.2 0-30.3 3.6-44.9 10.8-13.6 6.6-27.4 18-41 30.8-2-77.5-50.2-160.7-134.1-179.9-13-2.9-25.9-4.3-38.8-4.3z" fill="#6B0A0C" p-id="51194"></path><path d="M209.3 205.9c-19.4 68.2 15.3 158.4 85.2 181.7 12.1 4 20.5 1.1 33.8 5.1 5.1 1.6 9.2 7.7 5.8 13.9-8.6 15.8-90.2 11.1-123.5 36.6-34.4 26.4-47.4 81.3-13.2 117.7 24.2 25.8 80.1 20.7 114 29.4 21.7 5.6 47.2 23.6 59.5 52.7 18.9 44.8 28.4 66.3 25.3 93.1-3.6 30.4-12.9 45-33.5 65.2-22.8 22.3-21.5 75.2 4.8 99.4 16.7 15.4 38.1 20 60.2 16.3 69.8-11.9 114-63.5 129.9-131 4.9-21 32.7-166.8-94.8-205.8-140.7-43-7.1-179-79.2-218.1-76.4-41.2-150.3-53.6-174.3-156.2z" fill="#F19920" p-id="51195"></path><path d="M265.2 142.9c-11.7 2.7-18.2 19.1-13.6 42.2s17.7 14.4 14.8-6.8c-2.9-21.3 8.1-37.5-1.2-35.4zM280 133.6c-3.7 2.2-6.3 10.7 8.4 22 13.1 10 18.8 16.7 25.9 25.8 7.1 9.1 16.2 5.1 12.4-7.3-3.5-11.4-15.4-23.3-23.5-31.4-10.5-10.4-16.9-12.9-23.2-9.1zM312.2 123.5c-3.6 4.1-0.3 9.8 13.1 16.6 12.6 6.4 15.7 16.6 21.7 11.3 6-5.3-3.2-14.2-13.1-21-9.9-6.8-18.3-10.7-21.7-6.9z" fill="#6B0A0C" p-id="51196"></path><path d="M421.5 444.1a28.8 29.2 0 1 0 57.6 0 28.8 29.2 0 1 0-57.6 0Z" fill="#FF5A78" p-id="51197"></path><path d="M450.3 414.9c15.9 0 28.8 13.1 28.8 29.2s-12.9 29.2-28.8 29.2-28.8-13.1-28.8-29.2 12.9-29.2 28.8-29.2m0-16.3c-24.9 0-45.1 20.4-45.1 45.5s20.2 45.5 45.1 45.5c24.9 0 45.1-20.4 45.1-45.5s-20.2-45.5-45.1-45.5z" fill="#6B0A0C" p-id="51198"></path><path d="M445 420.4s-11.8 4.4-15.1 17.1c-3.3 12.6 2.4 22.3 10.1 26.5 7.7 4.2 11.8 1.2 11.8 1.2s-20.7-22.2-6.8-44.8z" fill="#FFFFFF" p-id="51199"></path><path d="M469.6 532.9a28.1 28.5 0 1 0 56.2 0 28.1 28.5 0 1 0-56.2 0Z" fill="#FF5A78" p-id="51200"></path><path d="M497.7 504.4c3.3 0 6.7 0.6 10.1 1.9 14.5 5.6 21.7 22.1 16.2 36.8-4.3 11.3-14.9 18.3-26.2 18.3-3.3 0-6.7-0.6-10.1-1.9-14.5-5.6-21.7-22.1-16.2-36.8 4.3-11.4 14.9-18.3 26.2-18.3m0-16.4c-18.3 0-35 11.6-41.5 28.8-8.7 23 2.7 48.9 25.5 57.8 5.1 2 10.5 3 16 3 18.3 0 35-11.6 41.5-28.8 8.7-23-2.7-48.9-25.5-57.8-5.1-2-10.5-3-16-3z" fill="#6B0A0C" p-id="51201"></path><path d="M501.1 509.4s-12.3-0.1-19.6 10.2c-7.3 10.4-5.5 21.2 0 27.7 5.6 6.5 10.4 5.3 10.4 5.3s-11.3-27.5 9.2-43.2z" fill="#FFFFFF" p-id="51202"></path><path d="M517.7 622.3a28.1 28.5 0 1 0 56.2 0 28.1 28.5 0 1 0-56.2 0Z" fill="#FF5A78" p-id="51203"></path><path d="M545.8 593.8c3.3 0 6.7 0.6 10.1 1.9 14.5 5.6 21.7 22.1 16.2 36.8-4.3 11.3-14.9 18.3-26.2 18.3-3.3 0-6.7-0.6-10.1-1.9-14.5-5.6-21.7-22.1-16.2-36.8 4.3-11.3 14.9-18.3 26.2-18.3m0-16.3c-18.3 0-35 11.6-41.5 28.8-8.7 23 2.7 48.9 25.5 57.8 5.1 2 10.5 3 16 3 18.3 0 35-11.6 41.5-28.8 8.7-23-2.7-48.9-25.5-57.8-5.1-2-10.5-3-16-3z" fill="#6B0A0C" p-id="51204"></path><path d="M549.2 598.8s-12.3-0.1-19.6 10.2c-7.3 10.4-5.5 21.2 0 27.7 5.6 6.5 10.4 5.3 10.4 5.3s-11.3-27.5 9.2-43.2z" fill="#FFFFFF" p-id="51205"></path><path d="M252.7 313.2a26.3 26.5 0 1 0 52.6 0 26.3 26.5 0 1 0-52.6 0Z" fill="#6B0A0C" p-id="51206"></path><path d="M270.2 242.5a17.6 17.7 0 1 0 35.2 0 17.6 17.7 0 1 0-35.2 0Z" fill="#6B0A0C" p-id="51207"></path><path d="M353.9 203.5a17.6 17.7 0 1 0 35.2 0 17.6 17.7 0 1 0-35.2 0Z" fill="#6B0A0C" p-id="51208"></path><path d="M405.9 240a26.3 26.5 0 1 0 52.6 0 26.3 26.5 0 1 0-52.6 0Z" fill="#6B0A0C" p-id="51209"></path><path d="M345.9 345.9c-39.2 0-69.9-22.2-71.7-23.5-3.6-2.7-4.4-7.8-1.7-11.4 2.7-3.6 7.8-4.4 11.4-1.8 2.2 1.6 53.8 38.5 104.4 8.7 39.9-23.6 35.9-76.7 35.9-77.2-0.4-4.5 3-8.4 7.4-8.8 4.5-0.4 8.4 3 8.8 7.4 0.2 2.6 4.8 63.8-43.8 92.6-17.4 10.3-34.8 14-50.7 14zM255.7 610.7c-2.4-2.9-58.2-72.8-16.8-114.8 26.5-26.9-3.2-67.8-3.5-68.2l19.7-14.5c14.8 20 34.1 66.7 1.2 100-25.8 26.1 17.9 81.6 18.4 82.2l-19 15.3zM548.1 853.8c-11.1 0-83.9-2.1-96.4-56.7-8.8-38.5-61.6-38.5-63.6-38.4l-0.3-24.5c2.9-0.1 74.6-0.4 87.8 57.5 8.8 38.7 72.7 37.7 73.3 37.7l0.5 24.5c-0.1-0.1-0.6-0.1-1.3-0.1zM680.9 769.9c-1-3.3-22.8-81 27.4-111.2 34-20.5 17-73.1 16.8-73.6l23.2-7.7c1 2.9 23.1 71.8-27.4 102.3-33.7 20.3-16.7 82.8-16.6 83.5l-23.4 6.7zM665.8 389.8c-24.4-4.7-70-26-68.2-72.9 0.3-6.4-1.6-11.3-6-15.6-15.1-14.8-54.1-16.1-66.6-15.4l-1.4-24.5c6-0.3 59.7-2.7 85.2 22.4 9.2 9.1 13.8 20.8 13.3 34-1.5 37.8 47.8 47.8 48.3 47.9l-4.6 24.1z" fill="#6B0A0C" p-id="51210"></path></svg>